<svg width="19" height="24" viewBox="0 0 19 24" fill="none" xmlns="http://www.w3.org/2000/svg">
<path d="M7.44788 1.50026C6.05209 1.55117 5.06118 2.57282 5.1032 3.94439C5.14522 5.31595 6.05476 6.34746 7.44788 6.38853C8.841 6.42959 9.83012 5.02041 9.79257 3.94439C9.74968 2.71575 8.84367 1.44936 7.44788 1.50026Z" fill="black"/>
<path d="M6.27658 12.5002C3.5677 12.3266 0.940013 15.0733 1.00104 17.9995C1.06207 20.9256 3.20341 23.5119 6.27658 23.4987C9.34975 23.4855 11.887 20.6555 11.5521 17.9995M7.44892 8.22295V11.8891M18 22.2767H15.6553L13.3106 16.7774H7.44892V11.8891M7.44892 11.8891H11.5521M5.1032 3.94439C5.06118 2.57282 6.05209 1.55117 7.44788 1.50026C8.84367 1.44936 9.74968 2.71575 9.79257 3.94439C9.83012 5.02041 8.841 6.42959 7.44788 6.38853C6.05476 6.34746 5.14522 5.31595 5.1032 3.94439Z" stroke="black" stroke-linecap="round" stroke-linejoin="round"/>
</svg>
