<svg width="26" height="26" viewBox="0 0 26 26" fill="none" xmlns="http://www.w3.org/2000/svg">
<path d="M1 24.4947H3.13333V7.82105L5.26667 4.78947L9 3.27368H12.2L15.4 4.2842L17.5333 7.31578L18.0667 8.83157L15.4 10.3474L14.8667 11.8632L13.2667 12.8737L14.3333 14.3895H24.4667V12.8737L22.8667 12.3684C23.2222 11.8632 23.8267 10.8526 23.4 10.8526C22.9733 10.8526 21.0889 9.50526 20.2 8.83157L19.1333 4.78947L14.8667 1.75789L10.6 1.25262L5.8 1.75789L3.13333 3.77894L1 7.82105V12.3684V24.4947Z" fill="white"/>
<path d="M19.1333 9.33685C21.8 9.33685 22.8667 10.3474 22.8667 12.3684" stroke="#CBE2FF"/>
<path d="M1 15.4V9.33686C1 -1.77895 20.2 -1.77895 20.2 9.33685M20.2 9.33685L18.0667 9.33684M20.2 9.33685C21.2667 9.33684 23.4 9.33684 23.4 12.3684M1 17.9263V24.4947M3.13333 24.4947C3.13333 24.4947 3.13333 17.4211 3.13333 9.33686C3.13333 1.25263 18.0667 1.25263 18.0667 9.33684M18.0667 9.33684C17 9.33684 14.8667 9.33684 14.8667 12.3684M23.4 12.3684H21.2667M23.4 12.3684C25.5333 12.3684 25.5333 14.3895 23.4 14.3895C21.2667 14.3895 17 14.3895 14.8667 14.3895C12.7333 14.3895 12.7333 12.3684 14.8667 12.3684M14.8667 12.3684H19.1333" stroke="black" stroke-linecap="round" stroke-linejoin="round"/>
<path d="M15.9333 16.4105V19.4421M18.0667 15.9053V23.9895M22.3333 16.4105V25M20.2 15.9053V25" stroke="black" stroke-linecap="round" stroke-linejoin="round" stroke-dasharray="2 2"/>
</svg>
