<svg width="26" height="22" viewBox="0 0 26 22" fill="none" xmlns="http://www.w3.org/2000/svg">
<path d="M1.11111 17.2222V3.5L2.5 2.33333C3.40741 2.03704 5.32222 1.4 5.72222 1.22222C6.12222 1.04444 8.81482 1 10.1111 1L12.9444 1.77778C14.1667 2.33333 15.2222 2.88889 15.6667 4.27778C15.7208 4.4471 15.3889 8.14815 15.3889 9.88889C15.3704 12.6667 15.3444 17.4111 15.3889 17.7222C15.4333 18.0333 14.4444 19.4815 13.9444 19.7222L10.8889 21H4.94444L1.66667 19.1667L1.11111 17.2222Z" fill="white"/>
<path d="M15 5.94446C15 5.94446 15 16.3333 15 17.7778C15 19.2222 12.1667 20.4445 12.1667 20.4445" stroke="#CBE2FF" stroke-linecap="round" stroke-linejoin="round"/>
<path d="M3.44444 7.38889C7.94444 8.38889 17.2222 7.38889 14.2778 2.5" stroke="#CBE2FF"/>
<path d="M24.6667 1.11108H12.6667L15.5556 3.61108L15.6111 15.6666H24.6667C24.2963 15.2778 23.6111 14.5222 23.8333 14.6111C24.0556 14.7 24.6667 13.4259 24.9444 12.7778L24.0556 11.4444C23.9222 11.6222 24.3704 10.8518 24.9444 9.99997L24.0556 8.44442L24.9444 7.11108L23.8333 5.61108L24.9444 4.16664L23.8333 2.77775L24.6667 1.11108Z" fill="#BED8FB"/>
<path d="M15.3889 6.55554V9.55554" stroke="#CBE2FF"/>
<path d="M12.8889 1.55554C14.1667 1.55554 16 2.94443 16 4.16665C16 5.43935 16.1111 11.9259 16 15.3889" stroke="#9DC6FB"/>
<path d="M5.83333 4.83336L6.22222 3.83336L8.22222 3.38892L10.3889 4.05558L10.1111 5.22225L7.22222 5.55558L5.83333 4.83336Z" fill="#8C5728"/>
<path d="M0.5 12.5555C0.5 12.8317 0.723858 13.0555 1 13.0555C1.27614 13.0555 1.5 12.8317 1.5 12.5555H0.5ZM1.5 15C1.5 14.7238 1.27614 14.5 1 14.5C0.723858 14.5 0.5 14.7238 0.5 15H1.5ZM16.0556 9.72221C16.0556 9.44607 15.8317 9.22221 15.5556 9.22221C15.2794 9.22221 15.0556 9.44607 15.0556 9.72221H16.0556ZM15.0556 6.99999C15.0556 7.27613 15.2794 7.49999 15.5556 7.49999C15.8317 7.49999 16.0556 7.27613 16.0556 6.99999H15.0556ZM16.0556 4.94443C16.0556 4.66829 15.8317 4.44443 15.5556 4.44443C15.2794 4.44443 15.0556 4.66829 15.0556 4.94443H16.0556ZM16.8889 1.55554C17.165 1.55554 17.3889 1.33168 17.3889 1.05554C17.3889 0.7794 17.165 0.555542 16.8889 0.555542V1.55554ZM19.6667 0.555542C19.3905 0.555542 19.1667 0.7794 19.1667 1.05554C19.1667 1.33168 19.3905 1.55554 19.6667 1.55554V0.555542ZM25 1.05554L25.4206 1.32592C25.5195 1.17207 25.5265 0.976485 25.4389 0.815948C25.3512 0.655411 25.1829 0.555542 25 0.555542V1.05554ZM24 2.6111L23.5794 2.34072C23.4684 2.51348 23.4742 2.73658 23.5942 2.90325L24 2.6111ZM25 3.99999L25.4206 4.27037C25.5316 4.09761 25.5258 3.8745 25.4058 3.70783L25 3.99999ZM24 5.55554L23.5794 5.28516C23.4684 5.45792 23.4742 5.68102 23.5942 5.84769L24 5.55554ZM25 6.94443L25.416 7.22178C25.5316 7.04836 25.5275 6.82142 25.4058 6.65228L25 6.94443ZM24 8.44443L23.584 8.16708C23.472 8.33503 23.472 8.55383 23.584 8.72178L24 8.44443ZM25 9.94443L25.416 10.2218C25.528 10.0538 25.528 9.83503 25.416 9.66708L25 9.94443ZM24 11.4444L23.584 11.1671C23.4702 11.3377 23.4722 11.5604 23.5889 11.729L24 11.4444ZM25 12.8889L25.416 13.1662C25.5298 12.9956 25.5278 12.7729 25.4111 12.6043L25 12.8889ZM24 14.3889L23.584 14.1115C23.4684 14.2849 23.4725 14.5119 23.5942 14.681L24 14.3889ZM25 15.7778V16.2778C25.1876 16.2778 25.3595 16.1727 25.445 16.0057C25.5306 15.8387 25.5154 15.6379 25.4058 15.4856L25 15.7778ZM15.0556 4.6111C15.0556 5.37453 14.5025 6.12984 13.2817 6.72131C12.0738 7.30652 10.3212 7.66665 8.22222 7.66665V8.66665C10.4188 8.66665 12.3328 8.29222 13.7177 7.62125C15.0897 6.95654 16.0556 5.93408 16.0556 4.6111H15.0556ZM8.22222 7.66665C6.12302 7.66665 4.40018 7.30644 3.22213 6.72319C2.03624 6.13606 1.5 5.38293 1.5 4.6111H0.5C0.5 5.92568 1.4271 6.95033 2.77843 7.61937C4.1376 8.29229 6.02588 8.66665 8.22222 8.66665V7.66665ZM1.5 4.6111C1.5 3.83927 2.03624 3.08614 3.22213 2.49901C4.40018 1.91575 6.12302 1.55554 8.22222 1.55554V0.555542C6.02588 0.555542 4.1376 0.929905 2.77843 1.60283C1.4271 2.27187 0.5 3.29652 0.5 4.6111H1.5ZM8.22222 1.55554C10.3212 1.55554 12.0738 1.91568 13.2817 2.50089C14.5025 3.09236 15.0556 3.84767 15.0556 4.6111H16.0556C16.0556 3.28812 15.0897 2.26565 13.7177 1.60095C12.3328 0.92998 10.4188 0.555542 8.22222 0.555542V1.55554ZM9.94444 4.6111C9.94444 4.7472 9.87852 4.89025 9.54128 5.02407C9.19822 5.1602 8.7025 5.22221 8.16667 5.22221V6.22221C8.75119 6.22221 9.39437 6.15822 9.91011 5.95357C10.4317 5.74661 10.9444 5.33411 10.9444 4.6111H9.94444ZM8.16667 5.22221C7.63168 5.22221 7.10295 5.16053 6.7267 5.0203C6.33933 4.87593 6.27778 4.72377 6.27778 4.6111H5.27778C5.27778 5.35754 5.85049 5.76093 6.37747 5.95734C6.91558 6.15789 7.58129 6.22221 8.16667 6.22221V5.22221ZM6.27778 4.6111C6.27778 4.50693 6.30619 4.44387 6.34805 4.39309C6.39705 4.33366 6.48883 4.26333 6.65317 4.19812C6.99179 4.06376 7.51103 3.99999 8.16667 3.99999V2.99999C7.47972 2.99999 6.80452 3.06222 6.28434 3.26863C6.01927 3.37381 5.76557 3.52757 5.57643 3.757C5.38015 3.9951 5.27778 4.28571 5.27778 4.6111H6.27778ZM8.16667 3.99999C8.82428 3.99999 9.30908 4.06441 9.61375 4.19367C9.75892 4.25526 9.83638 4.32059 9.87777 4.37562C9.91463 4.42462 9.94444 4.49321 9.94444 4.6111H10.9444C10.9444 4.29943 10.8574 4.01436 10.6769 3.77448C10.501 3.54063 10.2607 3.38188 10.0043 3.27309C9.50572 3.06156 8.85163 2.99999 8.16667 2.99999V3.99999ZM1.5 12.5555V4.88888H0.5V12.5555H1.5ZM0.5 15V17.4444H1.5V15H0.5ZM0.5 17.4444C0.5 18.6512 1.149 19.7329 2.44251 20.4874C3.71596 21.2303 5.62149 21.6667 8.22222 21.6667V20.6667C5.71185 20.6667 4.00626 20.2419 2.94638 19.6237C1.90655 19.0171 1.5 18.2376 1.5 17.4444H0.5ZM8.22222 21.6667C10.834 21.6667 12.7645 21.1709 14.0606 20.4023C15.3577 19.633 16.0556 18.5604 16.0556 17.4444H15.0556C15.0556 18.1062 14.6423 18.8947 13.5505 19.5421C12.4577 20.1902 10.7215 20.6667 8.22222 20.6667V21.6667ZM16.0556 6.99999V4.94443H15.0556V6.99999H16.0556ZM8.22222 1.55554H16.8889V0.555542H8.22222V1.55554ZM19.6667 1.55554H25V0.555542H19.6667V1.55554ZM24.5794 0.785163L23.5794 2.34072L24.4206 2.88148L25.4206 1.32592L24.5794 0.785163ZM23.5942 2.90325L24.5942 4.29214L25.4058 3.70783L24.4058 2.31895L23.5942 2.90325ZM24.5794 3.72961L23.5794 5.28516L24.4206 5.82592L25.4206 4.27037L24.5794 3.72961ZM23.5942 5.84769L24.5942 7.23658L25.4058 6.65228L24.4058 5.26339L23.5942 5.84769ZM24.584 6.66708L23.584 8.16708L24.416 8.72178L25.416 7.22178L24.584 6.66708ZM23.584 8.72178L24.584 10.2218L25.416 9.66708L24.416 8.16708L23.584 8.72178ZM24.584 9.66708L23.584 11.1671L24.416 11.7218L25.416 10.2218L24.584 9.66708ZM23.5889 11.729L24.5889 13.1735L25.4111 12.6043L24.4111 11.1598L23.5889 11.729ZM24.584 12.6115L23.584 14.1115L24.416 14.6662L25.416 13.1662L24.584 12.6115ZM23.5942 14.681L24.5942 16.0699L25.4058 15.4856L24.4058 14.0967L23.5942 14.681ZM16.0556 17.4444V15.7778H15.0556V17.4444H16.0556ZM16.0556 15.7778V9.72221H15.0556V15.7778H16.0556ZM25 15.2778H15.5556V16.2778H25V15.2778Z" fill="black"/>
</svg>
