<svg width="12" height="24" viewBox="0 0 12 24" fill="none" xmlns="http://www.w3.org/2000/svg">
<path d="M7.99998 16H3.99999H2.5L3.99999 14V7.00003H7.99998V14L9.5 16H7.99998Z" fill="black"/>
<path d="M5.99999 1C5.99999 1 7.99998 1 7.99998 3C7.99998 4.99999 5.99999 4.99999 5.99999 4.99999C5.99999 4.99999 3.99999 4.99999 3.99999 3C3.99999 1 5.99999 1 5.99999 1Z" fill="black"/>
<path d="M3.99999 16V23M3.99999 16H7.99998M3.99999 16H2.5L3.99999 14M3.99999 16V14M7.99998 16V23M7.99998 16H9.5L7.99998 14M7.99998 16C7.99998 15.6876 7.99998 15.009 7.99998 14M7.99998 7.00003H3.99999M7.99998 7.00003L11 13M7.99998 7.00003C7.99998 10.0471 7.99998 12.4257 7.99998 14M3.99999 7.00003L1 13M3.99999 7.00003V14M7.99998 3C7.99998 1 5.99999 1 5.99999 1C5.99999 1 3.99999 1 3.99999 3C3.99999 4.99999 5.99999 4.99999 5.99999 4.99999C5.99999 4.99999 7.99998 4.99999 7.99998 3Z" stroke="black" stroke-linecap="round" stroke-linejoin="round"/>
</svg>
